<?xml version="1.0" encoding="UTF-8" standalone="no"?>
<!-- Created with Inkscape (http://www.inkscape.org/) -->

<svg
   width="497.32782"
   height="520.5"
   viewBox="0 0 131.58466 137.71562"
   version="1.1"
   id="svg5"
   xmlns="http://www.w3.org/2000/svg"
   xmlns:svg="http://www.w3.org/2000/svg">
  <defs
     id="defs2" />
  <g
     id="layer6"
     transform="translate(-138.83959,0.15658008)">
    <path
       id="rect22543"
       style="display:inline;fill:#f7f1e3;fill-opacity:1;stroke:#ffffff;stroke-width:0;stroke-opacity:0"
       d="m -9.0304565,182.96609 c 0,-6.94811 -5.5932415,-12.54187 -12.5413535,-12.54187 h -15.595688 l -0.133844,-19.04328 c -0.04883,-6.94795 -5.593751,-12.54135 -12.54187,-12.54135 -6.94812,0 -12.58557,5.59337 -12.541354,12.54135 l 0.13384,21.03131 c -93.025894,-1.40898 -93.119934,22.21798 4e-6,22.21876 l -0.133844,17.98495 c -0.05171,6.94793 5.593234,12.54136 12.541354,12.54136 6.948119,0 12.54187,-5.59324 12.54187,-12.54136 l 0.133844,-17.98495 15.595688,1.14102 c 6.929591,0.50699 12.5413535,-5.59324 12.5413535,-12.54135 z"
       transform="rotate(-90)" />
    <path
       id="path13995"
       style="color:#000000;display:inline;fill:#2b2b2b;fill-opacity:1;stroke-width:6.25336;-inkscape-stroke:none"
       d="m 220.42375,-0.15657959 c -27.614,2.536e-4 -49.99955,22.38597359 -49.99953,50.00004859 0.003,0.09303 0.007,0.186045 0.0103,0.279053 -0.004,0.159633 -0.0103,0.318678 -0.0103,0.479557 v 72.851371 c 0,8.33254 5.57502,14.1056 12.50002,14.1056 6.92496,0 12.50001,-5.77306 12.50001,-14.1056 V 93.145219 c 7.60085,4.388179 16.22288,6.698344 24.9995,6.698299 27.61425,2.1e-5 50.00007,-22.385804 50.00005,-50.000049 2e-5,-27.614071 -22.38552,-49.99978957 -49.99953,-50.00004859 z m 0,24.81243859 a 25,25.311501 0 0 1 25.00003,25.311634 25,25.311501 0 0 1 -25.00003,25.311633 25,25.311501 0 0 1 -24.9995,-25.311633 25,25.311501 0 0 1 24.9995,-25.311634 z" />
    <g
       id="layer7"
       style="display:inline">
      <path
         id="path21298-3"
         style="display:inline;fill:#23466e;fill-opacity:0.5;stroke:#ffffff;stroke-width:0;stroke-dasharray:none;stroke-opacity:0"
         d="m 220.42427,-0.15657959 a 35.658142,37.717476 0 0 0 -35.65829,37.71707759 35.658142,37.717476 0 0 0 33.73386,37.64163 25,25.311501 0 0 1 -23.07559,-25.234635 25,25.311501 0 0 1 24.9995,-25.311634 25,25.311501 0 0 1 25.00003,25.311634 25,25.311501 0 0 1 -23.07559,25.234635 35.658142,37.717476 0 0 0 33.73437,-37.64163 35.658142,37.717476 0 0 0 -35.65829,-37.71707759 z" />
      <path
         id="path21298-3-2"
         style="display:inline;fill:#006e5b;fill-opacity:0.5;stroke:#ffffff;stroke-width:0;stroke-dasharray:none;stroke-opacity:0"
         d="m 232.9248,12.343433 a 37.499691,37.499691 0 0 0 -37.50004,37.500036 37.499691,37.499691 0 0 0 0.002,0.05478 25,25.311501 0 0 1 24.99692,-25.242387 25,25.311501 0 0 1 25.00003,25.311634 25,25.311501 0 0 1 -25.00003,25.311633 25,25.311501 0 0 1 -24.92044,-23.33656 37.499691,37.499691 0 0 0 37.42149,35.400423 37.499691,37.499691 0 0 0 37.49952,-37.49952 37.499691,37.499691 0 0 0 -37.49952,-37.500036 z" />
      <path
         id="path21298"
         style="display:none;fill:#f9f9f9;fill-opacity:0.709804;stroke:#ffffff;stroke-width:0;stroke-dasharray:none;stroke-opacity:0"
         d="m -207.92426,12.343433 a 37.499912,37.499912 0 0 1 37.50004,37.500036 37.499912,37.499912 0 0 1 -37.50004,37.49952 37.499912,37.499912 0 0 1 -37.422,-35.412309 25,25.311501 0 0 0 24.92251,23.348446 25,25.311501 0 0 0 24.9995,-25.311633 25,25.311501 0 0 0 -24.9995,-25.311634 25,25.311501 0 0 0 -24.999,25.218099 37.499912,37.499912 0 0 1 -0.001,-0.03049 37.499912,37.499912 0 0 1 37.49952,-37.500036 z"
         transform="scale(-1,1)" />
      <path
         id="path21298-3-2-5"
         style="display:inline;opacity:1;fill:#ff585d;fill-opacity:0.5;fill-rule:evenodd;stroke:#ffffff;stroke-width:15.6;stroke-dasharray:none;stroke-opacity:0"
         d="M 220.37208,24.657926 A 37.593662,37.593662 0 0 0 182.8307,62.24943 37.593662,37.593662 0 0 0 220.42427,99.843518 37.593662,37.593662 0 0 0 258.01784,62.24943 37.593662,37.593662 0 0 0 221.05731,24.664128 25,25.311501 0 0 1 245.42378,49.967493 25,25.311501 0 0 1 220.42375,75.279126 25,25.311501 0 0 1 195.42425,49.967493 25,25.311501 0 0 1 220.37208,24.657926 Z" />
    </g>
  </g>
</svg>
