<?xml version="1.0" encoding="UTF-8" standalone="no"?>
<!-- Created with Inkscape (http://www.inkscape.org/) -->

<svg
   width="533"
   height="520.50073"
   viewBox="0 0 141.02292 137.71581"
   version="1.1"
   id="svg5"
   xmlns="http://www.w3.org/2000/svg"
   xmlns:svg="http://www.w3.org/2000/svg">
  <defs
     id="defs2" />
  <g
     id="layer6"
     transform="translate(-286.27916,0.15675659)">
    <path
       id="rect22543-5"
       style="display:inline;fill:#2b2b2b;fill-opacity:1;stroke:#ffffff;stroke-width:0;stroke-opacity:0"
       d="m 330.49458,9.030457 c -6.94811,0 -12.54187,5.593241 -12.54187,12.541353 v 15.595688 l -19.04328,0.133844 c -6.94795,0.04883 -12.54135,5.593751 -12.54135,12.54187 0,6.94812 5.59323,12.541354 12.54135,12.541354 l 19.04328,-0.133844 c -1.35594,93.011448 24.20601,93.145358 24.20679,0 l 17.98495,0.133844 c 6.94793,0.05171 12.54136,-5.593234 12.54136,-12.541354 0,-6.948119 -5.59324,-12.54187 -12.54136,-12.54187 L 342.1595,37.167498 343.30052,21.57181 C 343.80751,14.642219 337.70728,9.030457 330.75917,9.030457 Z" />
    <path
       id="path13995-5"
       style="color:#000000;display:inline;fill:#f7f1e3;fill-opacity:1;stroke-width:6.25336;-inkscape-stroke:none"
       d="m 367.95224,-0.15658 c -27.614,2.54e-4 -49.99955,22.385974 -49.99953,50.000049 0.003,0.09303 0.007,0.186045 0.0103,0.279053 -0.004,0.159633 -0.0103,0.318678 -0.0103,0.479557 v 72.851371 c 0,8.33254 5.57502,14.1056 12.50002,14.1056 6.92496,0 12.50001,-5.77306 12.50001,-14.1056 V 93.145219 c 7.60085,4.388179 16.22288,6.698344 24.9995,6.698299 27.61425,2.1e-5 50.00007,-22.385804 50.00005,-50.000049 2e-5,-27.614071 -22.38552,-49.99979 -49.99953,-50.000049 z m 0,24.812439 a 25,25.311501 0 0 1 25.00003,25.311634 25,25.311501 0 0 1 -25.00003,25.311633 25,25.311501 0 0 1 -24.9995,-25.311633 25,25.311501 0 0 1 24.9995,-25.311634 z" />
    <path
       id="path21298-3-8"
       style="display:inline;fill:#23466e;fill-opacity:0.65;stroke:#ffffff;stroke-width:0;stroke-dasharray:none;stroke-opacity:0"
       d="m 367.95276,-0.15658 a 35.658142,37.717476 0 0 0 -35.65829,37.717078 35.658142,37.717476 0 0 0 33.73386,37.64163 25,25.311501 0 0 1 -23.07559,-25.234635 25,25.311501 0 0 1 24.9995,-25.311634 25,25.311501 0 0 1 25.00003,25.311634 25,25.311501 0 0 1 -23.07559,25.234635 35.658142,37.717476 0 0 0 33.73437,-37.64163 35.658142,37.717476 0 0 0 -35.65829,-37.717078 z" />
    <path
       id="path21298-3-2-1"
       style="display:inline;fill:#006e5b;fill-opacity:0.65;stroke:#ffffff;stroke-width:0;stroke-dasharray:none;stroke-opacity:0"
       d="m 380.45329,12.343433 a 37.499691,37.499691 0 0 0 -37.50004,37.500036 37.499691,37.499691 0 0 0 0.002,0.05478 25,25.311501 0 0 1 24.99692,-25.242387 25,25.311501 0 0 1 25.00003,25.311634 25,25.311501 0 0 1 -25.00003,25.311633 25,25.311501 0 0 1 -24.92044,-23.33656 37.499691,37.499691 0 0 0 37.42149,35.400423 37.499691,37.499691 0 0 0 37.49952,-37.49952 37.499691,37.499691 0 0 0 -37.49952,-37.500036 z" />
    <path
       id="path21298-3-2-5-2"
       style="display:inline;fill:#ff585d;fill-opacity:0.5;stroke:#ffffff;stroke-width:0;stroke-dasharray:none;stroke-opacity:0"
       d="M 367.90057,24.657926 A 37.593662,37.593662 0 0 0 330.35919,62.24943 37.593662,37.593662 0 0 0 367.95276,99.843518 37.593662,37.593662 0 0 0 405.54633,62.24943 37.593662,37.593662 0 0 0 368.5858,24.664128 25,25.311501 0 0 1 392.95227,49.967493 25,25.311501 0 0 1 367.95224,75.279126 25,25.311501 0 0 1 342.95274,49.967493 25,25.311501 0 0 1 367.90057,24.657926 Z" />
  </g>
</svg>
