<?xml version="1.0" encoding="UTF-8" standalone="no"?>
<!-- Created with Inkscape (http://www.inkscape.org/) -->

<svg
   width="397.93771"
   height="520.13086"
   viewBox="0 0 105.28769 137.61795"
   version="1.1"
   id="svg5"
   xmlns="http://www.w3.org/2000/svg"
   xmlns:svg="http://www.w3.org/2000/svg">
  <defs
     id="defs2" />
  <g
     id="layer6"
     transform="translate(-7.015257e-6,-155.921)">
    <path
       id="path901-3"
       style="display:inline;fill:#000000;fill-opacity:0;stroke:#000000;stroke-width:5.8;stroke-dasharray:none;stroke-opacity:0"
       d="m 85.866699,208.68248 a 32.404921,32.404921 0 0 1 -32.40493,32.40493 32.404921,32.404921 0 0 1 -32.404922,-32.40493 32.404921,32.404921 0 0 1 32.404922,-32.40492 32.404921,32.404921 0 0 1 32.40493,32.40492 z" />
    <path
       id="rect1019-2-3-6-0-0"
       style="display:inline;fill:#f7f1e3;fill-opacity:1;stroke:#f515de;stroke-width:0.16252;stroke-opacity:0"
       d="m 53.146489,260.81867 0.0915,-12.15998 0.0439,-0.0444 c -14.421102,0.21169 -38.785749,-9.58115 -39.579713,-39.44452 -13.07191579,0.0574 -0.02034,0.0656 -13.02385879,-0.008 -0.08126,34.1018 25.55791279,51.81985 52.46817179,51.65722 z" />
    <path
       id="rect1019-2-3-6-1"
       style="display:inline;fill:#ff585f;fill-opacity:1;stroke:#15f530;stroke-width:0.16252;stroke-opacity:0"
       d="m 105.20616,210.49088 c 0,-2.05768 -3e-5,-1.03491 0,-2.05982 l -12.159791,-0.0915 -0.0444,-0.0439 c -1.18438,23.07084 -15.67453,35.03729 -29.95994,38.83674 -10.62534,2.826 -21.32403,1.09291 -30.283502,-4.16626 -7.69906,-4.51932 -14.23616,-11.64243 -16.932128,-20.71385 1.180662,20.83111 16.944085,38.09642 37.72334,38.64775 31.63112,1.3e-4 51.737941,-28.41749 51.656421,-50.40916 z" />
    <path
       id="rect1019-2-3-00"
       style="display:inline;fill:#006e5b;fill-opacity:1;stroke:#15f530;stroke-width:0.164799;stroke-opacity:0"
       d="m 105.20492,206.51636 c 0.009,-2.29341 -0.16774,-4.60619 -0.52859,-6.91775 -3.74595,-23.95869 -26.177251,-43.52644 -50.675271,-43.59521 -2.10901,0 -1.06072,3e-5 -2.11121,0 l -0.0937,12.19886 -0.045,0.0446 c 0.99457,0.0806 0.29348,0.70656 1.23621,0.0731 33.02899,3.15772 44.82515,31.86944 37.19238,54.0962 -3.48123,10.13739 -10.67203,17.96268 -22.31915,23.09909 21.35072,-1.18445 36.763951,-17.17097 37.329021,-38.01699 0.009,-0.32677 0.014,-0.65425 0.0154,-0.98188 z" />
    <path
       id="rect1019-2-3-0-4"
       style="display:inline;fill:#23466e;fill-opacity:1;stroke:#15f530;stroke-width:0.164534;stroke-opacity:0"
       d="m 0.59796221,209.31987 c 3.38873999,-0.4079 9.24340599,0.92045 12.20391279,0.1387 -0.283498,-1.06074 -0.143661,0.0159 -0.05572,-1.22456 -0.220193,-23.00208 16.23692,-35.78111 33.414484,-38.42322 17.45404,-2.68464 35.267842,5.5168 43.505772,24.25768 -1.18064,-21.35119 -16.960982,-37.48443 -37.739742,-38.04951 -0.32572,-0.009 -0.0345,-0.01 -0.36104,-0.0113 -28.680099,5e-5 -52.6223858,25.40166 -50.96766779,53.31224 z" />
    <path
       id="rect12678-1"
       style="display:inline;fill:#f7f1e3;fill-opacity:1;stroke:#41ea4d;stroke-width:0.264997;stroke-dasharray:none;stroke-opacity:0"
       d="M 38.314285,171.7403 C 18.112443,172.92957 1.416254,188.71151 7.015257e-6,209.30919 c 1.3929375e-6,3.34946 0,52.18883 0,77.99943 0,3.37832 3.235236184743,6.09782 6.613498184743,6.09782 h 0.04547 c 3.3782618,0 6.0977248,-2.7195 6.0977248,-6.09782 0.305755,-22.08881 0.966758,-63.53028 1.035972,-77.82805 -0.547433,-18.94926 11.554281,-32.06216 24.521613,-37.74027 z" />
  </g>
</svg>
