<?xml version="1.0" encoding="UTF-8" standalone="no"?>
<!-- Created with Inkscape (http://www.inkscape.org/) -->

<svg
   width="397.93774"
   height="520.13086"
   viewBox="0 0 105.2877 137.61795"
   version="1.1"
   id="svg5"
   xmlns="http://www.w3.org/2000/svg"
   xmlns:svg="http://www.w3.org/2000/svg">
  <defs
     id="defs2" />
  <g
     id="layer5"
     style="display:inline">
    <g
       id="layer3"
       style="display:inline"
       transform="translate(-22.505035,-7.3294759)">
      <path
         id="path901"
         style="display:inline;fill:#000000;fill-opacity:0;stroke:#000000;stroke-width:5.8;stroke-dasharray:none;stroke-opacity:0"
         d="M 108.37173,60.090964 A 32.404921,32.404921 0 0 1 75.966797,92.495887 32.404921,32.404921 0 0 1 43.561875,60.090964 32.404921,32.404921 0 0 1 75.966797,27.686043 32.404921,32.404921 0 0 1 108.37173,60.090964 Z" />
    </g>
    <g
       id="layer4"
       transform="matrix(0.99998459,0,0,0.99999996,-22.504692,-7.3294735)">
      <path
         id="rect1019-2-3-6-0"
         style="fill:#2b2b2b;fill-opacity:1;stroke:#f515de;stroke-width:0.162521;stroke-opacity:0"
         d="m 75.65234,112.22715 0.0915,-12.15998 0.0439,-0.0444 c -14.421322,0.21169 -38.786345,-9.581143 -39.580321,-39.444515 -13.072117,0.05736 -0.02034,0.06564 -13.02406,-0.0083 -0.08126,34.101794 25.558307,51.819845 52.468981,51.657215 z" />
      <path
         id="rect1019-2-3-6"
         style="fill:#ff585f;fill-opacity:1;stroke:#15f530;stroke-width:0.162521;stroke-opacity:0"
         d="m 127.71281,61.89936 c 0,-2.05768 -3e-5,-1.03491 0,-2.05982 l -12.15998,-0.0915 -0.0444,-0.0439 C 114.32404,82.774983 99.833664,94.741438 85.548034,98.540887 74.922527,101.36688 64.223671,99.633798 55.264064,94.37462 47.564885,89.855299 41.027684,82.732192 38.331675,73.660775 c 1.18068,20.831107 16.944346,38.096415 37.723919,38.647745 31.631606,1.3e-4 51.738736,-28.417483 51.657216,-50.40916 z" />
      <path
         id="rect1019-2-3"
         style="fill:#006e5b;fill-opacity:1;stroke:#15f530;stroke-width:0.1648;stroke-opacity:0"
         d="m 127.71157,57.924841 c 0.009,-2.293413 -0.16774,-4.606184 -0.5286,-6.917751 -3.746,-23.958693 -26.17765,-43.5264444 -50.676048,-43.5952138 -2.109041,0 -1.060737,3.02e-5 -2.111237,0 l -0.09375,12.1988638 -0.04503,0.04455 c 0.994588,0.08056 0.293485,0.706562 1.236234,0.07313 33.029501,3.157716 44.825841,31.869441 37.192951,54.096204 C 109.20481,83.962011 102.0139,91.787301 90.366593,96.923716 111.71765,95.73926 127.13111,79.75274 127.69619,58.906722 c 0.009,-0.32677 0.014,-0.65425 0.0154,-0.981882 z" />
      <path
         id="rect1019-2-3-0"
         style="fill:#23466e;fill-opacity:1;stroke:#15f530;stroke-width:0.164535;stroke-opacity:0"
         d="m 23.103003,60.728354 c 3.388792,-0.407904 9.243548,0.920452 12.204101,0.1387 -0.283502,-1.060744 -0.143663,0.01589 -0.05572,-1.224557 C 35.031188,36.640408 51.488554,23.861376 68.666382,21.219266 86.120693,18.534632 104.16903,27.357541 112.40709,46.098415 111.22643,24.747227 95.211583,7.9925218 74.432505,7.4274372 c -0.325727,-0.009 -0.03447,-0.00993 -0.361052,-0.011328 C 45.390915,7.4161566 21.44826,32.817776 23.103003,60.728354 Z" />
      <path
         id="rect12678"
         style="fill:#2b2b2b;fill-opacity:1;stroke:#41ea4d;stroke-width:0.264999;stroke-dasharray:none;stroke-opacity:0"
         d="m 60.819907,23.148781 c -20.202153,1.189267 -36.8986,16.741767 -38.314868,37.339451 0.03512,3.337861 0.0021,73.523198 0,78.228878 0,3.37832 3.235285,6.09782 6.613599,6.09782 h 0.04547 c 3.378314,0 6.097819,-2.7195 6.097819,-6.09782 0,0 0.966773,-63.530289 1.035988,-77.828057 C 35.750474,41.939791 47.852374,28.826887 60.819907,23.148781 Z" />
    </g>
  </g>
</svg>
