<?xml version="1.0" encoding="UTF-8" standalone="no"?>
<svg
   class="ionicon"
   viewBox="0 0 512 512"
   version="1.1"
   id="svg6"
   sodipodi:docname="all-time.svg"
   inkscape:version="1.2.2 (732a01da63, 2022-12-09)"
   xmlns:inkscape="http://www.inkscape.org/namespaces/inkscape"
   xmlns:sodipodi="http://sodipodi.sourceforge.net/DTD/sodipodi-0.dtd"
   xmlns="http://www.w3.org/2000/svg"
   xmlns:svg="http://www.w3.org/2000/svg">
  <defs
     id="defs10" />
  <sodipodi:namedview
     id="namedview8"
     pagecolor="#505050"
     bordercolor="#eeeeee"
     borderopacity="1"
     inkscape:showpageshadow="0"
     inkscape:pageopacity="0"
     inkscape:pagecheckerboard="0"
     inkscape:deskcolor="#505050"
     showgrid="false"
     inkscape:zoom="1.6191406"
     inkscape:cx="255.38239"
     inkscape:cy="279.16043"
     inkscape:window-width="1920"
     inkscape:window-height="1009"
     inkscape:window-x="-8"
     inkscape:window-y="-8"
     inkscape:window-maximized="1"
     inkscape:current-layer="svg6" />
  <rect
     x="48"
     y="80"
     width="416"
     height="384"
     rx="48"
     fill="none"
     stroke="currentColor"
     stroke-linejoin="round"
     stroke-width="32"
     id="rect2"
     style="stroke:#ffffff;stroke-opacity:1" />
  <path
     fill="none"
     stroke="currentColor"
     stroke-linecap="round"
     stroke-linejoin="round"
     stroke-width="32"
     d="M 128,48 V 80 M 384,48 v 32 m 80,80 H 48"
     id="path4"
     sodipodi:nodetypes="cccccc"
     style="stroke:#ffffff;stroke-opacity:1" />
  <path
     d="m 256,306.33535 c 0,0 -33.44201,-66.88403 -87.78528,-66.88403 -37.70587,0 -68.27744,29.95847 -68.27744,66.88403 0,36.92555 30.57157,66.88402 68.27744,66.88402 26.13354,0 49.46631,-15.61324 65.49061,-33.44201 M 256,306.33535 c 0,0 33.44202,66.88402 87.78529,66.88402 37.70587,0 68.27743,-29.95847 68.27743,-66.88402 0,-36.92556 -30.57156,-66.88403 -68.27743,-66.88403 -26.13354,0 -49.46631,15.61324 -65.49061,33.44201"
     fill="none"
     stroke="currentColor"
     stroke-linecap="round"
     stroke-miterlimit="10"
     stroke-width="22.2947"
     id="path2169"
     style="stroke:#ffffff;stroke-opacity:1" />
</svg>
