<svg width="362" height="362" viewBox="0 0 362 362" fill="none" xmlns="http://www.w3.org/2000/svg">
<g clip-path="url(#clip0_1083_24)">
<circle cx="181" cy="181" r="126" fill="#121212" stroke="#FFFBFC" stroke-width="10"/>
<path d="M181.373 267.372L181.52 247.838L181.59 247.767C158.425 248.107 119.286 232.376 118.011 184.405C97.0124 184.497 117.978 184.51 97.0896 184.391C96.9591 239.171 138.145 267.633 181.373 267.372Z" fill="#00A55E"/>
<path d="M265 186.527C265 183.221 265 184.864 265 183.218L245.467 183.071L245.395 183.001C243.493 220.061 220.216 239.283 197.269 245.387C180.2 249.926 163.014 247.142 148.622 238.694C136.255 231.434 125.754 219.992 121.423 205.42C123.32 238.882 148.641 266.617 182.02 267.502C232.832 267.503 265.131 221.854 265 186.527Z" fill="#F9A826"/>
<path d="M264.998 180.142C265.012 176.458 264.728 172.743 264.149 169.03C258.131 130.543 222.098 99.1105 182.745 99C179.358 99 181.042 99 179.354 99L179.204 118.596L179.131 118.667C180.729 118.797 179.603 119.802 181.117 118.785C234.174 123.857 253.123 169.979 240.862 205.683C235.269 221.968 223.718 234.538 205.009 242.789C239.306 240.886 264.065 215.206 264.973 181.72C264.987 181.195 264.995 180.669 264.998 180.142Z" fill="#CC2500"/>
<path d="M96.9605 184.646C102.404 183.991 111.809 186.124 116.564 184.869C116.109 183.165 116.334 184.894 116.475 182.902C116.121 145.952 142.557 125.424 170.151 121.18C198.188 116.867 227.18 131.04 240.413 161.145C238.517 126.847 212.792 99.9327 179.413 99.025C178.89 99.0105 179.358 99.009 178.833 99.0068C132.763 99.0069 94.3025 139.811 96.9605 184.646Z" fill="#5946B2"/>
<path d="M157.547 124.279C125.095 126.19 98.275 151.173 96 184.26C96.0564 189.622 96.0034 273.061 96 280.62C101 285 106.927 289.184 106.927 289.184L111.844 292.298L116.214 294.866L116.492 283.7C116.492 283.7 118.045 207.871 118.156 184.904C117.277 154.465 136.716 133.4 157.547 124.279Z" fill="#00A55E"/>
</g>
<defs>
<clipPath id="clip0_1083_24">
<rect width="262" height="262" fill="white" transform="translate(50 50)"/>
</clipPath>
</defs>
</svg>
