<svg width="262" height="262" viewBox="0 0 262 262" fill="none" xmlns="http://www.w3.org/2000/svg">
<g clip-path="url(#clip0_611_23)">
<rect width="262" height="262" rx="80" fill="white"/>
<rect x="5" y="5" width="252" height="252" rx="75" fill="#121212" stroke="#F7F1E3" stroke-width="10"/>
<path d="M131.373 217.372L131.52 197.838L131.59 197.767C108.425 198.107 69.2861 182.376 68.0107 134.405C47.0124 134.497 67.978 134.51 47.0896 134.391C46.9591 189.171 88.145 217.633 131.373 217.372Z" fill="#00A55E"/>
<path d="M215 136.527C215 133.221 215 134.864 215 133.218L195.467 133.071L195.395 133.001C193.493 170.061 170.216 189.283 147.269 195.387C130.2 199.926 113.014 197.142 98.6222 188.694C86.2547 181.434 75.7537 169.992 71.423 155.42C73.3196 188.882 98.6414 216.617 132.02 217.502C182.832 217.503 215.131 171.854 215 136.527Z" fill="#F9A826"/>
<path d="M214.998 130.142C215.012 126.458 214.728 122.743 214.149 119.03C208.131 80.5435 172.098 49.1105 132.745 49C129.358 49 131.042 49 129.354 49L129.204 68.5958L129.131 68.6674C130.729 68.7968 129.603 69.8024 131.117 68.7849C184.174 73.8573 203.123 119.979 190.862 155.683C185.269 171.968 173.718 184.538 155.009 192.789C189.306 190.886 214.065 165.206 214.973 131.72C214.987 131.195 214.995 130.669 214.998 130.142Z" fill="#CC2500"/>
<path d="M46.9605 134.646C52.4041 133.991 61.8088 136.124 66.5645 134.869C66.1091 133.165 66.3337 134.894 66.475 132.902C66.1213 95.9517 92.5574 75.4239 120.151 71.1797C148.188 66.8672 177.18 81.04 190.413 111.145C188.517 76.8469 162.792 49.9327 129.413 49.025C128.89 49.0105 129.358 49.009 128.833 49.0068C82.7625 49.0069 44.3025 89.8112 46.9605 134.646Z" fill="#5946B2"/>
<path d="M107.547 74.2792C75.0952 76.1896 48.275 101.173 46 134.26C46.0564 139.622 46.0034 247.061 46 254.62C55.9268 258.184 54.9268 258.184 54.9268 258.184L61.8438 260.298L66.2145 260.866L66.4919 233.7C66.4919 233.7 68.0449 157.871 68.1561 134.904C67.2767 104.465 86.7165 83.4004 107.547 74.2792Z" fill="#00A55E"/>
</g>
<defs>
<clipPath id="clip0_611_23">
<rect width="262" height="262" rx="80" fill="white"/>
</clipPath>
</defs>
</svg>
